<?xml version="1.0" standalone="no"?>
<!DOCTYPE svg PUBLIC "-//W3C//DTD SVG 20010904//EN"
 "http://www.w3.org/TR/2001/REC-SVG-20010904/DTD/svg10.dtd">
<svg version="1.0" xmlns="http://www.w3.org/2000/svg"
 width="512.000000pt" height="512.000000pt" viewBox="0 0 512.000000 512.000000"
 preserveAspectRatio="xMidYMid meet">

<g transform="translate(0.000000,512.000000) scale(0.100000,-0.100000)"
fill="#000000" stroke="none">
<path d="M3523 5106 c-23 -7 -56 -23 -75 -34 -18 -12 -524 -513 -1124 -1114
-1213 -1215 -1129 -1121 -1129 -1263 1 -144 -72 -62 1138 -1271 1036 -1035
1084 -1083 1140 -1103 213 -78 429 65 431 284 2 141 71 63 -990 1125 -525 525
-954 960 -954 965 0 6 423 433 941 950 517 517 953 958 969 981 141 201 7 477
-238 490 -39 2 -84 -2 -109 -10z"/>
</g>
</svg>
